{
  "accessors": [
    {
      "bufferView": 2,
      "componentType": 5126,
      "count": 2552,
      "max": [
        1.9908490180969238,
        0.3762289881706238,
        0.5866979956626892
      ],
      "min": [
        -1.9916330575942993,
        -1.608441948890686,
        0.44279900193214417
      ],
      "type": "VEC3"
    },
    {
      "bufferView": 2,
      "byteOffset": 30624,
      "componentType": 5126,
      "count": 2552,
      "max": [
        0.9940087795257568,
        0.9961290955543518,
        0.9886669516563416
      ],
      "min": [
        -0.9940087795257568,
        -0.9961290955543518,
        -1.0
      ],
      "type": "VEC3"
    },
    {
      "bufferView": 1,
      "componentType": 5126,
      "count": 2552,
      "max": [
        0.9219939708709717,
        0.7857580184936523
      ],
      "min": [
        0.08603300154209137,
        0.36915698647499084
      ],
      "type": "VEC2"
    },
    {
      "bufferView": 0,
      "componentType": 5125,
      "count": 12408,
      "type": "SCALAR"
    },
    {
      "bufferView": 2,
      "byteOffset": 61248,
      "componentType": 5126,
      "count": 4,
      "max": [
        1.929932951927185,
        3.4550399780273438,
        0.4202289879322052
      ],
      "min": [
        -1.940721035003662,
        1.8217159509658813,
        0.4202289879322052
      ],
      "type": "VEC3"
    },
    {
      "bufferView": 2,
      "byteOffset": 61296,
      "componentType": 5126,
      "count": 4,
      "max": [
        0.0,
        -0.0,
        1.0
      ],
      "min": [
        0.0,
        -0.0,
        1.0
      ],
      "type": "VEC3"
    },
    {
      "bufferView": 1,
      "byteOffset": 20416,
      "componentType": 5126,
      "count": 4,
      "max": [
        0.6861079931259155,
        0.8397799730300903
      ],
      "min": [
        0.31561198830604553,
        0.6838639974594116
      ],
      "type": "VEC2"
    },
    {
      "bufferView": 0,
      "byteOffset": 49632,
      "componentType": 5125,
      "count": 6,
      "type": "SCALAR"
    },
    {
      "bufferView": 2,
      "byteOffset": 61344,
      "componentType": 5126,
      "count": 945,
      "max": [
        2.295241117477417,
        4.8893561363220215,
        0.48890599608421326
      ],
      "min": [
        -2.2951889038085938,
        -4.937469959259033,
        0.0808970034122467
      ],
      "type": "VEC3"
    },
    {
      "bufferView": 2,
      "byteOffset": 72684,
      "componentType": 5126,
      "count": 945,
      "max": [
        0.9994520545005798,
        0.9998380541801453,
        1.0
      ],
      "min": [
        -0.9994520545005798,
        -0.9998486638069153,
        -1.0
      ],
      "type": "VEC3"
    },
    {
      "bufferView": 1,
      "byteOffset": 20448,
      "componentType": 5126,
      "count": 945,
      "max": [
        1.0,
        1.0
      ],
      "min": [
        0.0,
        0.0
      ],
      "type": "VEC2"
    },
    {
      "bufferView": 0,
      "byteOffset": 49656,
      "componentType": 5125,
      "count": 4494,
      "type": "SCALAR"
    },
    {
      "bufferView": 2,
      "byteOffset": 84024,
      "componentType": 5126,
      "count": 2372,
      "max": [
        1.9685280323028564,
        -1.8900829553604126,
        0.6012229919433594
      ],
      "min": [
        -1.9725760221481323,
        -4.353998184204102,
        0.42835500836372375
      ],
      "type": "VEC3"
    },
    {
      "bufferView": 2,
      "byteOffset": 112488,
      "componentType": 5126,
      "count": 2372,
      "max": [
        1.0,
        1.0,
        0.9997878670692444
      ],
      "min": [
        -1.0,
        -1.0,
        -1.0
      ],
      "type": "VEC3"
    },
    {
      "bufferView": 1,
      "byteOffset": 28008,
      "componentType": 5126,
      "count": 2372,
      "max": [
        0.9395530223846436,
        0.7462189793586731
      ],
      "min": [
        0.045260000973939896,
        0.18712200224399567
      ],
      "type": "VEC2"
    },
    {
      "bufferView": 0,
      "byteOffset": 67632,
      "componentType": 5125,
      "count": 11472,
      "type": "SCALAR"
    },
    {
      "bufferView": 2,
      "byteOffset": 140952,
      "componentType": 5126,
      "count": 4,
      "max": [
        1.929932951927185,
        3.4550399780273438,
        0.39777299761772156
      ],
      "min": [
        -1.940721035003662,
        1.8217159509658813,
        0.39777299761772156
      ],
      "type": "VEC3"
    },
    {
      "bufferView": 2,
      "byteOffset": 141000,
      "componentType": 5126,
      "count": 4,
      "max": [
        0.0,
        -0.0,
        1.0
      ],
      "min": [
        0.0,
        -0.0,
        1.0
      ],
      "type": "VEC3"
    },
    {
      "bufferView": 1,
      "byteOffset": 46984,
      "componentType": 5126,
      "count": 4,
      "max": [
        0.6861079931259155,
        0.8397799730300903
      ],
      "min": [
        0.31561198830604553,
        0.6838639974594116
      ],
      "type": "VEC2"
    },
    {
      "bufferView": 0,
      "byteOffset": 113520,
      "componentType": 5125,
      "count": 6,
      "type": "SCALAR"
    },
    {
      "bufferView": 2,
      "byteOffset": 141048,
      "componentType": 5126,
      "count": 8,
      "max": [
        1.9446040391921997,
        3.532776117324829,
        0.5008869767189026
      ],
      "min": [
        -1.9805339574813843,
        1.72330904006958,
        0.3507609963417053
      ],
      "type": "VEC3"
    },
    {
      "bufferView": 0,
      "byteOffset": 113544,
      "componentType": 5125,
      "count": 8,
      "type": "SCALAR"
    },
    {
      "bufferView": 2,
      "byteOffset": 141144,
      "componentType": 5126,
      "count": 96,
      "max": [
        2.0073630809783936,
        3.5834169387817383,
        0.5008869767189026
      ],
      "min": [
        -2.032572031021118,
        1.6821630001068115,
        0.3507609963417053
      ],
      "type": "VEC3"
    },
    {
      "bufferView": 2,
      "byteOffset": 142296,
      "componentType": 5126,
      "count": 96,
      "max": [
        0.9998555183410645,
        0.6018862724304199,
        0.988029420375824
      ],
      "min": [
        -0.9999920129776001,
        -0.9972431659698486,
        -0.988029420375824
      ],
      "type": "VEC3"
    },
    {
      "bufferView": 1,
      "byteOffset": 47016,
      "componentType": 5126,
      "count": 96,
      "max": [
        0.8900830149650574,
        0.8450620174407959
      ],
      "min": [
        0.29909801483154297,
        0.3561230003833771
      ],
      "type": "VEC2"
    },
    {
      "bufferView": 0,
      "byteOffset": 113576,
      "componentType": 5125,
      "count": 216,
      "type": "SCALAR"
    },
    {
      "bufferView": 2,
      "byteOffset": 143448,
      "componentType": 5126,
      "count": 1038,
      "max": [
        1.9012080430984497,
        1.1656689643859863,
        0.5855249762535095
      ],
      "min": [
        -1.8943710327148438,
        0.23407700657844543,
        0.3996169865131378
      ],
      "type": "VEC3"
    },
    {
      "bufferView": 2,
      "byteOffset": 155904,
      "componentType": 5126,
      "count": 1038,
      "max": [
        1.0,
        1.0,
        1.0
      ],
      "min": [
        -1.0,
        -1.0,
        -1.0
      ],
      "type": "VEC3"
    },
    {
      "bufferView": 1,
      "byteOffset": 47784,
      "componentType": 5126,
      "count": 1038,
      "max": [
        0.5,
        0.5
      ],
      "min": [
        0.0,
        0.0
      ],
      "type": "VEC2"
    },
    {
      "bufferView": 0,
      "byteOffset": 114440,
      "componentType": 5125,
      "count": 4410,
      "type": "SCALAR"
    },
    {
      "bufferView": 2,
      "byteOffset": 168360,
      "componentType": 5126,
      "count": 403,
      "max": [
        2.2636659145355225,
        4.795676231384277,
        0.5009480118751526
      ],
      "min": [
        -2.2636659145355225,
        -4.675608158111572,
        0.3507609963417053
      ],
      "type": "VEC3"
    },
    {
      "bufferView": 2,
      "byteOffset": 173196,
      "componentType": 5126,
      "count": 403,
      "max": [
        1.0,
        1.0,
        1.0
      ],
      "min": [
        -1.0,
        -0.9996998906135559,
        -1.0
      ],
      "type": "VEC3"
    },
    {
      "bufferView": 1,
      "byteOffset": 56088,
      "componentType": 5126,
      "count": 403,
      "max": [
        1.0,
        0.9614580273628235
      ],
      "min": [
        0.2762730121612549,
        0.0
      ],
      "type": "VEC2"
    },
    {
      "bufferView": 0,
      "byteOffset": 132080,
      "componentType": 5125,
      "count": 1257,
      "type": "SCALAR"
    }
  ],
  "asset": {
    "extras": {
      "author": "Niilo Poutanen (https://sketchfab.com/niilo.poutanen)",
      "license": "CC-BY-4.0 (http://creativecommons.org/licenses/by/4.0/)",
      "source": "https://sketchfab.com/3d-models/casio-classwiz-calculator-22ac8280c1434e5f8b41e2fdec45abd6",
      "title": "Casio classwiz calculator"
    },
    "generator": "Sketchfab-14.68.0",
    "version": "2.0"
  },
  "bufferViews": [
    {
      "buffer": 0,
      "byteLength": 137108,
      "name": "floatBufferViews",
      "target": 34963
    },
    {
      "buffer": 0,
      "byteLength": 59312,
      "byteOffset": 137108,
      "byteStride": 8,
      "name": "floatBufferViews",
      "target": 34962
    },
    {
      "buffer": 0,
      "byteLength": 178032,
      "byteOffset": 196420,
      "byteStride": 12,
      "name": "floatBufferViews",
      "target": 34962
    }
  ],
  "buffers": [
    {
      "byteLength": 374452,
      "uri": "scene.bin"
    }
  ],
  "extensionsUsed": [
    "KHR_materials_specular",
    "KHR_materials_clearcoat"
  ],
  "images": [
    {
      "uri": "textures/Func_baseColor.png"
    },
    {
      "uri": "textures/material_baseColor.png"
    },
    {
      "uri": "textures/Nytt_baseColor.jpeg"
    },
    {
      "uri": "textures/Runko_baseColor.png"
    }
  ],
  "materials": [
    {
      "doubleSided": true,
      "name": "Func",
      "pbrMetallicRoughness": {
        "baseColorTexture": {
          "index": 0
        },
        "metallicFactor": 0.0,
        "roughnessFactor": 0.11723333880548918
      }
    },
    {
      "alphaMode": "BLEND",
      "doubleSided": true,
      "name": "Lasi",
      "pbrMetallicRoughness": {
        "baseColorFactor": [
          0.8,
          0.8,
          0.8,
          0.0321109145188455
        ],
        "metallicFactor": 0.0,
        "roughnessFactor": 0.7880318375580224
      }
    },
    {
      "doubleSided": true,
      "name": "Musta_muovi",
      "pbrMetallicRoughness": {
        "baseColorFactor": [
          0.005416,
          0.005416,
          0.005416,
          1.0
        ],
        "metallicFactor": 0.0,
        "roughnessFactor": 0.36044026533875684
      }
    },
    {
      "doubleSided": true,
      "name": "Napit",
      "pbrMetallicRoughness": {
        "baseColorFactor": [
          0.012294,
          0.012294,
          0.012294,
          1.0
        ],
        "metallicFactor": 0.0,
        "roughnessFactor": 0.15979455094881104
      }
    },
    {
      "doubleSided": true,
      "name": "material",
      "pbrMetallicRoughness": {
        "baseColorTexture": {
          "index": 1
        },
        "metallicFactor": 0.0,
        "roughnessFactor": 0.22667645574545964
      }
    },
    {
      "doubleSided": true,
      "extensions": {
        "KHR_materials_specular": {
          "specularColorFactor": [
            1.0,
            1.0,
            1.0
          ],
          "specularFactor": 0.2570773215621181
        }
      },
      "name": "Nytt",
      "pbrMetallicRoughness": {
        "baseColorTexture": {
          "index": 2
        },
        "metallicFactor": 0.43340234329873717,
        "roughnessFactor": 0.28747818737877656
      }
    },
    {
      "doubleSided": true,
      "extensions": {
        "KHR_materials_clearcoat": {
          "clearcoatFactor": 0.20843593625546455,
          "clearcoatRoughnessFactor": 0.04
        },
        "KHR_materials_specular": {
          "specularColorFactor": [
            1.0,
            1.0,
            1.0
          ],
          "specularFactor": 0.5306851139120442
        }
      },
      "name": "Runko",
      "pbrMetallicRoughness": {
        "baseColorFactor": [
          0.8042929062619704,
          0.8042929062619704,
          0.8042929062619704,
          1.0
        ],
        "baseColorTexture": {
          "index": 3
        },
        "metallicFactor": 0.5306851139120442,
        "roughnessFactor": 0.27531784105211315
      }
    },
    {
      "doubleSided": true,
      "name": "harmaa",
      "pbrMetallicRoughness": {
        "baseColorFactor": [
          0.072907,
          0.072907,
          0.072907,
          1.0
        ],
        "metallicFactor": 0.0,
        "roughnessFactor": 0.7578632679707746
      }
    }
  ],
  "meshes": [
    {
      "name": "Object_0",
      "primitives": [
        {
          "attributes": {
            "NORMAL": 1,
            "POSITION": 0,
            "TEXCOORD_0": 2
          },
          "indices": 3,
          "material": 0,
          "mode": 4
        }
      ]
    },
    {
      "name": "Object_1",
      "primitives": [
        {
          "attributes": {
            "NORMAL": 5,
            "POSITION": 4,
            "TEXCOORD_0": 6
          },
          "indices": 7,
          "material": 1,
          "mode": 4
        }
      ]
    },
    {
      "name": "Object_2",
      "primitives": [
        {
          "attributes": {
            "NORMAL": 9,
            "POSITION": 8,
            "TEXCOORD_0": 10
          },
          "indices": 11,
          "material": 2,
          "mode": 4
        }
      ]
    },
    {
      "name": "Object_3",
      "primitives": [
        {
          "attributes": {
            "NORMAL": 13,
            "POSITION": 12,
            "TEXCOORD_0": 14
          },
          "indices": 15,
          "material": 4,
          "mode": 4
        }
      ]
    },
    {
      "name": "Object_4",
      "primitives": [
        {
          "attributes": {
            "NORMAL": 17,
            "POSITION": 16,
            "TEXCOORD_0": 18
          },
          "indices": 19,
          "material": 5,
          "mode": 4
        }
      ]
    },
    {
      "name": "Object_5",
      "primitives": [
        {
          "attributes": {
            "POSITION": 20
          },
          "indices": 21,
          "material": 7,
          "mode": 1
        }
      ]
    },
    {
      "name": "Object_6",
      "primitives": [
        {
          "attributes": {
            "NORMAL": 23,
            "POSITION": 22,
            "TEXCOORD_0": 24
          },
          "indices": 25,
          "material": 7,
          "mode": 4
        }
      ]
    },
    {
      "name": "Object_7",
      "primitives": [
        {
          "attributes": {
            "NORMAL": 27,
            "POSITION": 26,
            "TEXCOORD_0": 28
          },
          "indices": 29,
          "material": 3,
          "mode": 4
        }
      ]
    },
    {
      "name": "Object_8",
      "primitives": [
        {
          "attributes": {
            "NORMAL": 31,
            "POSITION": 30,
            "TEXCOORD_0": 32
          },
          "indices": 33,
          "material": 6,
          "mode": 4
        }
      ]
    }
  ],
  "nodes": [
    {
      "children": [
        1
      ],
      "matrix": [
        1.0,
        0.0,
        0.0,
        0.0,
        0.0,
        2.220446049250313e-16,
        -1.0,
        0.0,
        0.0,
        1.0,
        2.220446049250313e-16,
        0.0,
        0.0,
        0.0,
        0.0,
        1.0
      ],
      "name": "Sketchfab_model"
    },
    {
      "children": [
        2,
        3,
        4,
        5,
        6,
        7,
        8,
        9,
        10
      ],
      "name": "Calculator.obj.cleaner.materialmerger.gles"
    },
    {
      "mesh": 0,
      "name": "Object_2"
    },
    {
      "mesh": 1,
      "name": "Object_3"
    },
    {
      "mesh": 2,
      "name": "Object_4"
    },
    {
      "mesh": 3,
      "name": "Object_5"
    },
    {
      "mesh": 4,
      "name": "Object_6"
    },
    {
      "mesh": 5,
      "name": "Object_7"
    },
    {
      "mesh": 6,
      "name": "Object_8"
    },
    {
      "mesh": 7,
      "name": "Object_9"
    },
    {
      "mesh": 8,
      "name": "Object_10"
    }
  ],
  "samplers": [
    {
      "magFilter": 9729,
      "minFilter": 9987,
      "wrapS": 10497,
      "wrapT": 10497
    }
  ],
  "scene": 0,
  "scenes": [
    {
      "name": "Sketchfab_Scene",
      "nodes": [
        0
      ]
    }
  ],
  "textures": [
    {
      "sampler": 0,
      "source": 0
    },
    {
      "sampler": 0,
      "source": 1
    },
    {
      "sampler": 0,
      "source": 2
    },
    {
      "sampler": 0,
      "source": 3
    }
  ]
}
