{
  "accessors": [
    {
      "bufferView": 1,
      "componentType": 5126,
      "count": 2638,
      "max": [
        13.296056747436523,
        5.470704555511475,
        5.500072002410889
      ],
      "min": [
        -5.500072002410889,
        -8.999070167541504,
        -8.375258445739746
      ],
      "type": "VEC3"
    },
    {
      "bufferView": 1,
      "byteOffset": 31656,
      "componentType": 5126,
      "count": 2638,
      "max": [
        1.0,
        1.0,
        1.0
      ],
      "min": [
        -1.0,
        -1.0,
        -1.0
      ],
      "type": "VEC3"
    },
    {
      "bufferView": 0,
      "componentType": 5125,
      "count": 4080,
      "type": "SCALAR"
    }
  ],
  "asset": {
    "extras": {
      "author": "wbarteck (https://sketchfab.com/wbarteck)",
      "license": "CC-BY-4.0 (http://creativecommons.org/licenses/by/4.0/)",
      "source": "https://sketchfab.com/3d-models/impossible-shapes-0cd3f394291a479cb8da440b9ed14f11",
      "title": "Impossible Shapes"
    },
    "generator": "Sketchfab-12.67.0",
    "version": "2.0"
  },
  "bufferViews": [
    {
      "buffer": 0,
      "byteLength": 16320,
      "name": "floatBufferViews",
      "target": 34963
    },
    {
      "buffer": 0,
      "byteLength": 63312,
      "byteOffset": 16320,
      "byteStride": 12,
      "name": "floatBufferViews",
      "target": 34962
    }
  ],
  "buffers": [
    {
      "byteLength": 79632,
      "uri": "scene.bin"
    }
  ],
  "materials": [
    {
      "doubleSided": true,
      "name": "Material"
    }
  ],
  "meshes": [
    {
      "name": "Object_0",
      "primitives": [
        {
          "attributes": {
            "NORMAL": 1,
            "POSITION": 0
          },
          "indices": 2,
          "material": 0,
          "mode": 4
        }
      ]
    }
  ],
  "nodes": [
    {
      "children": [
        1
      ],
      "matrix": [
        1.0,
        0.0,
        0.0,
        0.0,
        0.0,
        2.220446049250313e-16,
        -1.0,
        0.0,
        0.0,
        1.0,
        2.220446049250313e-16,
        0.0,
        0.0,
        8.881784197001252e-16,
        1.9721522630525295e-31,
        1.0
      ],
      "name": "Sketchfab_model"
    },
    {
      "children": [
        2
      ],
      "name": "root"
    },
    {
      "children": [
        3
      ],
      "matrix": [
        1.0,
        0.0,
        0.0,
        0.0,
        0.0,
        2.220446049250313e-16,
        1.0,
        0.0,
        0.0,
        -1.0,
        2.220446049250313e-16,
        0.0,
        0.0,
        0.0,
        0.0,
        1.0
      ],
      "name": "GLTF_SceneRootNode"
    },
    {
      "children": [
        4
      ],
      "matrix": [
        1.5076004266738892,
        0.0,
        0.0,
        0.0,
        0.0,
        1.5076004266738892,
        0.0,
        0.0,
        0.0,
        0.0,
        1.5076004266738892,
        0.0,
        -8.426859855651855,
        4.477444648742676,
        6.626414775848389,
        1.0
      ],
      "name": "Penrose.001_1"
    },
    {
      "mesh": 0,
      "name": "Object_4"
    }
  ],
  "scene": 0,
  "scenes": [
    {
      "name": "Sketchfab_Scene",
      "nodes": [
        0
      ]
    }
  ]
}
